<?xml version="1.0" encoding="UTF-8"?><svg id="Layer_1" xmlns="http://www.w3.org/2000/svg" width="81.24" height="83.69" viewBox="0 0 81.24 83.69"><path d="M28.73,65.9v6.53H0v-6.53h28.73Z" style="fill:#11375c; stroke-width:0px;"/><path d="M28.73,77.16v6.53H0v-6.53h28.73Z" style="fill:#11375c; stroke-width:0px;"/><path d="M62.07,65.9v6.53h-28.73v-6.53h28.73Z" style="fill:#11375c; stroke-width:0px;"/><path d="M62.07,77.16v6.53h-28.73v-6.53h28.73Z" style="fill:#11375c; stroke-width:0px;"/><path d="M62.07,3.67v5.93c6.98,0,12.66,6.26,12.66,13.24s-5.67,13.22-12.66,13.22v5.96c10.59,0,19.18-8.59,19.18-19.18S72.66,3.67,62.07,3.67Z" style="fill:#ea8323; stroke-width:0px;"/><path d="M33.37,52.61h22.16s0-45.57,0-45.57l-14.22,1.67c-.73,0-1.36-.56-1.81-.99-.46-.43-.92-1.63-.92-2.32,0-.73.07-1.99.5-2.41s1.01-.81,1.75-.81L59.3,0c.79,0,1.44.24,1.98.72.53.48.8,1.08.8,1.79v54.13c0,.71-.27,1.3-.8,1.79-.53.48-1.19.72-1.98.72h-26" style="fill:#ea8323; stroke-width:0px;"/><path d="M28.77,59.14H2.77c-.79,0-1.44-.24-1.98-.72C.27,57.94,0,57.35,0,56.64V2.51c0-.71.27-1.3.8-1.79C1.33.24,1.99,0,2.77,0l18.46,2.19c.73,0,1.32.39,1.75.81s.5,1.67.5,2.41c0,.68-.46,1.89-.92,2.32-.46.43-1.08.99-1.81.99l-14.22-1.67v45.57h22.16" style="fill:#ea8323; stroke-width:0px;"/></svg>