<svg id="Layer_1" data-name="Layer 1" xmlns="http://www.w3.org/2000/svg" width="577.33" height="114.06" viewBox="0 0 577.33 114.06"><path id="IL" d="M32.72,63.89l-.1.24,1.84,1.16L35,66.45,37,68.29l0,1.55-1.07,3-2.41,1.74-2.18.44-.43,2.51.72.34-.72,4.93L29.05,84l.33,1.89L29,86h0l-.39,2.13,1.55,4.3,5.51,4.64.49,2.23,1.06,1.11,3.48-.19L40,103.49,39.78,107l2.08,1.69,3.29,1.45,1.74,1.35,1,2.76-.53,1L50.75,118l.15,0-.29-.29,1-2.28,3.72,1,.92-1.06-.73-2.13,3-1.79-.82-1.16.72-1.64v-.15l-.19,0,0-4.3,1.06-.77,1.84-4.31-.39-1.88L59.6,95l.68-2.56L56.9,68.63l-.49-.54-1.26-2.85-1-1.06-.44-2.81v-.09l-6.52.92-3.92.48L32.72,63.89Z" transform="translate(-12.9 -4.51)" style="fill:#f7f8f9;stroke:#c1c0c0;stroke-linejoin:round;stroke-width:0.970631182193756px;fill-rule:evenodd"/><path id="IN" d="M77,64.9l-7.4,1.31-1.69.34-6,1-1.25,1-1.89.87-.72-.05-.87-.43-.29-.29,3.38,23.83L59.6,95l1.21,2.28.39,1.88-1.84,4.31-1.06.77,0,4.3.19,0,.2,0,.72-1.35h1.79l2.18-.73,2.7,1,.29-1.11,1.55-1.16,2.32.33,1.26-2.46,3.43.29,0-1.4,3-4-.49-1.83,2.13,0L82.13,94l-.63-2.37.1-.1-.1-.82L78.6,73.61l-1.3-7.3-.15-.78L77,64.9Z" transform="translate(-12.9 -4.51)" style="fill:#f7f8f9;stroke:#c1c0c0;stroke-linejoin:round;stroke-width:0.970631182193756px;fill-rule:evenodd"/><path id="OH" d="M110.8,68.09l-1.2-5.22-.25-1.06-1.35-6L106.26,57l-3.72,2.86-2.42,3-1.89.29-3.48,2-1.93-1.16L87,63.21h0l-3.1.78-3,.72-3.19.68-.49.14.15.78,1.3,7.3,2.9,17.11.1.82.39-.38,2.37-.29,1.25.63,2.47,2.12.68-.29,2.61,1.16,1.25-1,1.46.58,1.16-.29L97.07,92,98,93.57l2,1.16.1.1h0l2.08-1,.72-1.6-.58-1.64L104,88.06l1.21-.19-.15-2.13L107,83l.34.39,1.79-1.35,1.55-2.32L111,69.16l.1,0-.25-1Z" transform="translate(-12.9 -4.51)" style="fill:#f7f8f9;stroke:#c1c0c0;stroke-linejoin:round;stroke-width:0.970631182193756px;fill-rule:evenodd"/><path id="WI" d="M54.82,32.32l-1.21,1.5L52.88,36l.34,1.21ZM27.06,21l.73-1-.53.48Zm1.12-1.6-.25-.29-.53.34.78-.05ZM17.64,22.07l-1.12,1.25.54,5.81L14,31.93l-.58,2.71,1.69,1.54-.48,6.68,1.79,1.35,1.16.1,3.67,2.22L23.53,49l2.95,1.5.68,3.72v.24h0l1.4,1.69-.38,1.31.48,2.85,1.45,2,2.66,1.41-.05.24h0l10.54-1.21,3.92-.48,6.52-.92-.19-.73V58.28l-1.3-2.42-.34-3,.63-3.39-.34-2.61,1.16-3.24-.44-.53.1-3,.63-2.27L52.88,37l-1.4.48-.77,2-1.84,1.06L49.45,38l1.64-2.17.1-1,.05-.05-2.32-2.32V29.22L46.31,27.1l-3.58-.25-3.68-1-7.92-2.42-1.55-.87-.15.14L27,22.41l-.82.48.33-3.53-4,2-4.84.77,0-.09Zm9.47-2.57L27,19.17l-.34.14Zm-1.74-.33.15-.29-.1-.1-.05.39Zm3.53-.83-.14-.67-.15.82Z" transform="translate(-12.9 -4.51)" style="fill:#f7f8f9;stroke:#c1c0c0;stroke-linejoin:round;stroke-width:0.970631182193756px;fill-rule:evenodd"/><path id="MI" d="M61.88,34l-.25-.39-.05.49Zm.77-.87-.58-.77-.1.33Zm.48-3.48-.48-.44v.1ZM61.92,67.51l6-1,1.69-.34L77,64.9l.14.63.49-.14,3.19-.68,3-.72,3.1-.78,0-.14,1.6-3.15-.15-2.61,1.79-4.49,1.4.82.53-1L92,48.76l-1.31-2.42-1.93-5.13L87,39.33l-.87-.24L83,41.26l.34.44L81.7,44.79l-1.6-.29-.48-3.24L80.3,41l1.4-3.24.14-5.7-2.17-4.84-4.84-.82-.48-.73-4.5-1.3-2,2.51.2,2.18L66.47,31l.34,3-1.5,1.06V31.3L64,34.15l-1.59,2.52-1.07.82.54,2.66-.68,2.76.39,3.43L61.05,48l3.48,6.67L65,57.26,64.53,62l-2.32,5.32-.29.19ZM72.27,24l-1.26.1.78.58.48-.68Zm-7.35,1.26h-.39l.44.19Zm8.46-6.14-.48-.77-.19,0,.67.73ZM29.58,22.6l1.55.87,7.92,2.42,3.68,1,3.58.25,2.61,2.12v3.29l2.32,2.32v0l1.88-5.46,2.28-1.6,1.74-1.93.29,1.74,1.79-2.76,4.3-1.64.34-.68,4.35.54,1.69.87.82-2.13.78.48,3.38-.53-.82-1.35-1.5-.87.29-3.15L69.9,18l-2.71-.34-.87-2.08.29-.68L62.94,16.6l-2.37.15-4.25,2.61-.49,1-2.61-.63-1.64.72-3.29-2.85L41,15.35l-.15-.87L36.15,19l-2.66.68L29.72,22.5l-.14.1Zm17.11-11L41,14.43l1.88,1.84.73-1.84,1.93-2.37,1.11-.44ZM40.36,5,36.49,7.66,36.3,9l3-2.22Z" transform="translate(-12.9 -4.51)" style="fill:#f7f8f9;stroke:#c1c0c0;stroke-linejoin:round;stroke-width:0.970631182193756px;fill-rule:evenodd"/><circle cx="59.81" cy="42.81" r="9.94" style="fill:#fff;stroke:#000;stroke-linejoin:round;stroke-width:0.970631182193756px"/><circle cx="81.67" cy="72.84" r="9.94" style="fill:#fff;stroke:#000;stroke-linejoin:round;stroke-width:0.970631182193756px"/><circle cx="56.62" cy="78.4" r="9.94" style="fill:#fff;stroke:#000;stroke-linejoin:round;stroke-width:0.970631182193756px"/><circle cx="30.03" cy="81.01" r="9.94" style="fill:#fff;stroke:#000;stroke-linejoin:round;stroke-width:0.970631182193756px"/><circle cx="23.23" cy="39.14" r="9.94" style="fill:#fff;stroke:#000;stroke-linejoin:round;stroke-width:0.970631182193756px"/><line x1="33.17" y1="39.14" x2="49.87" y2="42.81" style="fill:#f7f8f9;stroke:#000;stroke-linejoin:round;stroke-width:0.970631182193756px"/><line x1="66.8" y1="49.87" x2="76.58" y2="64.31" style="fill:#f7f8f9;stroke:#000;stroke-linejoin:round;stroke-width:0.970631182193756px"/><line x1="71.56" y1="74.14" x2="66.46" y2="77.07" style="fill:#f7f8f9;stroke:#000;stroke-linejoin:round;stroke-width:0.970631182193756px"/><line x1="46.93" y1="80.61" x2="39.96" y2="81.01" style="fill:#f7f8f9;stroke:#000;stroke-linejoin:round;stroke-width:0.970631182193756px"/><line x1="25.43" y1="48.83" x2="28.24" y2="71.24" style="fill:#f7f8f9;stroke:#000;stroke-linejoin:round;stroke-width:0.970631182193756px"/><line x1="57.15" y1="52.39" x2="56.62" y2="68.46" style="fill:#f7f8f9;stroke:#000;stroke-linejoin:round;stroke-width:0.970631182193756px"/><path id="IL-2" data-name="IL" d="M131.47,63.89l-.1.24,1.84,1.16.58,1.16,1.93,1.84-.05,1.55-1.06,3-2.42,1.74-2.18.44-.43,2.51.72.34-.72,4.93L127.79,84l.34,1.89-.44.19h0l-.38,2.13,1.54,4.3,5.52,4.64.48,2.23,1.06,1.11,3.48-.19-.62,3.24-.25,3.48,2.08,1.69,3.29,1.45,1.74,1.35,1,2.76-.53,1L149.5,118l.14,0-.29-.29,1-2.28,3.72,1,.92-1.06-.72-2.13,3-1.79-.82-1.16.73-1.64v-.15l-.2,0,0-4.3,1.07-.77,1.83-4.31-.38-1.88L158.35,95l.67-2.56-3.38-23.83-.48-.54-1.26-2.85-1-1.06-.43-2.81v-.09l-6.53.92-3.91.48-10.54,1.21Z" transform="translate(-12.9 -4.51)" style="fill:#f7f8f9;stroke:#c1c0c0;stroke-linejoin:round;stroke-width:0.970631182193756px;fill-rule:evenodd"/><path id="IN-2" data-name="IN" d="M175.75,64.9l-7.39,1.31-1.7.34-6,1-1.26,1-1.89.87-.72-.05-.87-.43-.29-.29L159,92.46,158.35,95l1.21,2.28.38,1.88-1.83,4.31-1.07.77,0,4.3.2,0,.19,0,.73-1.35h1.78l2.18-.73,2.71,1,.29-1.11,1.54-1.16,2.33.33,1.25-2.46,3.44.29,0-1.4,3-4-.48-1.83,2.13,0L180.88,94l-.63-2.37.1-.1-.1-.82-2.9-17.11L176,66.31l-.14-.78-.15-.63Z" transform="translate(-12.9 -4.51)" style="fill:#f7f8f9;stroke:#c1c0c0;stroke-linejoin:round;stroke-width:0.970631182193756px;fill-rule:evenodd"/><path id="OH-2" data-name="OH" d="M209.55,68.09l-1.21-5.22-.24-1.06-1.36-6L205,57l-3.72,2.86-2.42,3-1.88.29-3.48,2-1.94-1.16-5.85-.68h0l-3.09.78-3.05.72-3.19.68-.48.14.14.78,1.31,7.3,2.9,17.11.1.82.38-.38,2.37-.29,1.26.63,2.46,2.12.68-.29,2.61,1.16,1.26-1,1.45.58,1.16-.29L195.82,92l.92,1.54,2,1.16.09.1h0l2.08-1,.73-1.6-.58-1.64,1.64-2.52,1.21-.19-.15-2.13,2-2.71.34.39,1.78-1.35,1.55-2.32.24-10.59.1,0-.24-1Z" transform="translate(-12.9 -4.51)" style="fill:#f7f8f9;stroke:#c1c0c0;stroke-linejoin:round;stroke-width:0.970631182193756px;fill-rule:evenodd"/><path id="WI-2" data-name="WI" d="M153.56,32.32l-1.21,1.5L151.63,36,152,37.2ZM125.81,21l.72-1-.53.48Zm1.11-1.6-.24-.29-.53.34.77-.05Zm-10.54,2.71-1.11,1.25.53,5.81-3.09,2.8-.58,2.71,1.69,1.54-.49,6.68,1.79,1.35,1.16.1L120,46.53,122.28,49l3,1.5.68,3.72v.24h0l1.4,1.69-.39,1.31.48,2.85,1.45,2,2.66,1.41,0,.24h0L142,62.68l3.91-.48,6.53-.92-.2-.73V58.28L151,55.86l-.34-3,.63-3.39-.34-2.61,1.16-3.24-.43-.53.09-3,.63-2.27-.72-.77-1.41.48-.77,2-1.84,1.06.58-2.56,1.65-2.17.09-1,0-.05-2.32-2.32V29.22l-2.61-2.12-3.58-.25-3.67-1-7.93-2.42-1.55-.87-.14.14-2.47-.33-.82.48.34-3.53-4,2-4.83.77-.05-.09Zm9.48-2.57-.1-.33-.34.14Zm-1.74-.33.14-.29-.1-.1,0,.39Zm3.53-.83-.15-.67-.14.82Z" transform="translate(-12.9 -4.51)" style="fill:#f7f8f9;stroke:#c1c0c0;stroke-linejoin:round;stroke-width:0.970631182193756px;fill-rule:evenodd"/><path id="MI-2" data-name="MI" d="M160.62,34l-.24-.39,0,.49Zm.77-.87-.58-.77-.09.33Zm.49-3.48-.49-.44v.1Zm-1.21,37.85,6-1,1.7-.34,7.39-1.31.15.63.48-.14,3.19-.68,3.05-.72,3.09-.78-.05-.14,1.6-3.15-.15-2.61,1.79-4.49,1.41.82.53-1-.15-3.86-1.3-2.42-1.94-5.13-1.69-1.88-.87-.24-3.14,2.17.34.44-1.65,3.09-1.59-.29-.49-3.24L179,41l1.4-3.24.15-5.7-2.18-4.84-4.83-.82-.49-.73-4.49-1.3-2,2.51.19,2.18L165.21,31l.34,3-1.5,1.06V31.3l-1.35,2.85-1.6,2.52-1.06.82.53,2.66-.68,2.76.39,3.43L159.8,48l3.48,6.67.43,2.56L163.28,62,161,67.32l-.29.19ZM171,24l-1.25.1.77.58L171,24Zm-7.34,1.26h-.39l.43.19Zm8.46-6.14-.49-.77-.19,0,.68.73ZM128.32,22.6l1.55.87,7.93,2.42,3.67,1,3.58.25,2.61,2.12v3.29L150,34.83v0l1.89-5.46,2.27-1.6,1.74-1.93.29,1.74L158,24.77l4.3-1.64.34-.68L167,23l1.7.87.82-2.13.77.48,3.39-.53-.83-1.35-1.5-.87.29-3.15L168.65,18l-2.71-.34-.87-2.08.29-.68-3.68,1.74-2.37.15-4.25,2.61-.48,1L152,19.7l-1.64.72L147,17.57l-7.3-2.22-.14-.87L134.9,19l-2.66.68-3.77,2.85-.15.1Zm17.12-11-5.66,2.81,1.89,1.84.72-1.84,1.94-2.37,1.11-.44ZM139.1,5l-3.86,2.66L135,9l3.05-2.22Z" transform="translate(-12.9 -4.51)" style="fill:#f7f8f9;stroke:#c1c0c0;stroke-linejoin:round;stroke-width:0.970631182193756px;fill-rule:evenodd"/><circle cx="158.55" cy="42.81" r="9.94" style="fill:#ec1e24;stroke:#000;stroke-linejoin:round;stroke-width:0.970631182193756px"/><circle cx="180.42" cy="72.84" r="9.94" style="fill:#fff;stroke:#000;stroke-linejoin:round;stroke-width:0.970631182193756px"/><circle cx="155.36" cy="78.4" r="9.94" style="fill:#fff;stroke:#000;stroke-linejoin:round;stroke-width:0.970631182193756px"/><circle cx="128.77" cy="81.01" r="9.94" style="fill:#fff;stroke:#000;stroke-linejoin:round;stroke-width:0.970631182193756px"/><circle cx="121.98" cy="39.14" r="9.94" style="fill:#fff;stroke:#000;stroke-linejoin:round;stroke-width:0.970631182193756px"/><line x1="131.91" y1="39.14" x2="148.62" y2="42.81" style="fill:#f7f8f9;stroke:#000;stroke-linejoin:round;stroke-width:0.970631182193756px"/><line x1="165.54" y1="49.87" x2="175.33" y2="64.31" style="fill:#f7f8f9;stroke:#000;stroke-linejoin:round;stroke-width:0.970631182193756px"/><line x1="170.3" y1="74.14" x2="165.21" y2="77.07" style="fill:#f7f8f9;stroke:#000;stroke-linejoin:round;stroke-width:0.970631182193756px"/><line x1="145.68" y1="80.61" x2="138.71" y2="81.01" style="fill:#f7f8f9;stroke:#000;stroke-linejoin:round;stroke-width:0.970631182193756px"/><line x1="124.18" y1="48.83" x2="126.98" y2="71.24" style="fill:#f7f8f9;stroke:#000;stroke-linejoin:round;stroke-width:0.970631182193756px"/><line x1="155.89" y1="52.39" x2="155.36" y2="68.46" style="fill:#f7f8f9;stroke:#000;stroke-linejoin:round;stroke-width:0.970631182193756px"/><path id="IL-3" data-name="IL" d="M229.22,63.89l-.1.24L231,65.29l.58,1.16,1.93,1.84-.05,1.55-1.06,3-2.42,1.74-2.17.44-.44,2.51.73.34-.73,4.93L225.54,84l.34,1.89-.44.19h0l-.38,2.13,1.54,4.3,5.52,4.64.48,2.23,1.06,1.11,3.48-.19-.62,3.24-.25,3.48,2.08,1.69,3.29,1.45,1.74,1.35,1,2.76-.53,1,3.43,2.81.14,0-.29-.29,1-2.28,3.72,1,.92-1.06-.72-2.13,3-1.79-.82-1.16.73-1.64v-.15l-.2,0,0-4.3,1.07-.77,1.83-4.31-.38-1.88L256.1,95l.67-2.56-3.38-23.83-.48-.54-1.26-2.85-1-1.06-.43-2.81v-.09l-6.53.92-3.91.48-10.54,1.21Z" transform="translate(-12.9 -4.51)" style="fill:#f7f8f9;stroke:#c1c0c0;stroke-linejoin:round;stroke-width:0.970631182193756px;fill-rule:evenodd"/><path id="IN-3" data-name="IN" d="M273.5,64.9l-7.39,1.31-1.7.34-6,1-1.26,1-1.88.87-.73-.05-.87-.43-.29-.29,3.38,23.83L256.1,95l1.21,2.28.38,1.88-1.83,4.31-1.07.77,0,4.3.2,0,.19,0,.73-1.35h1.78l2.18-.73,2.71,1,.29-1.11,1.55-1.16,2.32.33,1.25-2.46,3.44.29-.05-1.4,3-4-.48-1.83,2.13,0L278.63,94,278,91.64l.1-.1-.1-.82-2.9-17.11-1.31-7.3-.14-.78-.15-.63Z" transform="translate(-12.9 -4.51)" style="fill:#f7f8f9;stroke:#c1c0c0;stroke-linejoin:round;stroke-width:0.970631182193756px;fill-rule:evenodd"/><path id="OH-3" data-name="OH" d="M307.3,68.09l-1.21-5.22-.24-1.06-1.36-6L302.75,57,299,59.83l-2.42,3-1.88.29-3.48,2-1.94-1.16-5.85-.68h0l-3.09.78-3.05.72-3.19.68-.48.14.14.78,1.31,7.3L278,90.72l.1.82.38-.38,2.37-.29,1.26.63,2.46,2.12.68-.29,2.61,1.16,1.26-1,1.45.58,1.16-.29L293.57,92l.92,1.54,2,1.16.09.1h0l2.08-1,.73-1.6-.58-1.64,1.64-2.52,1.21-.19-.14-2.13,2-2.71.34.39,1.78-1.35,1.55-2.32.24-10.59.1,0-.24-1Z" transform="translate(-12.9 -4.51)" style="fill:#f7f8f9;stroke:#c1c0c0;stroke-linejoin:round;stroke-width:0.970631182193756px;fill-rule:evenodd"/><path id="WI-3" data-name="WI" d="M251.31,32.32l-1.21,1.5L249.38,36l.34,1.21ZM223.56,21l.72-1-.53.48Zm1.11-1.6-.24-.29-.53.34.77-.05Zm-10.54,2.71L213,23.32l.53,5.81-3.09,2.8-.58,2.71,1.69,1.54-.48,6.68,1.78,1.35,1.16.1,3.68,2.22L220,49l2.95,1.5.68,3.72v.24h0l1.4,1.69-.39,1.31.48,2.85,1.46,2,2.65,1.41,0,.24h0l10.54-1.21,3.91-.48,6.53-.92-.19-.73V58.28l-1.31-2.42-.34-3,.63-3.39-.34-2.61,1.16-3.24-.43-.53.09-3,.63-2.27-.72-.77-1.4.48-.78,2-1.84,1.06.58-2.56,1.65-2.17.09-1,0-.05-2.32-2.32V29.22L242.8,27.1l-3.58-.25-3.67-1-7.93-2.42-1.55-.87-.14.14-2.47-.33-.82.48.34-3.53-4,2-4.83.77-.05-.09Zm9.48-2.57-.1-.33-.34.14Zm-1.74-.33.14-.29-.09-.1,0,.39Zm3.53-.83-.15-.67-.14.82Z" transform="translate(-12.9 -4.51)" style="fill:#f7f8f9;stroke:#c1c0c0;stroke-linejoin:round;stroke-width:0.970631182193756px;fill-rule:evenodd"/><path id="MI-3" data-name="MI" d="M258.37,34l-.24-.39-.05.49Zm.77-.87-.58-.77-.09.33Zm.49-3.48-.49-.44v.1Zm-1.21,37.85,6-1,1.7-.34,7.39-1.31.15.63.48-.14,3.19-.68,3.05-.72,3.09-.78,0-.14,1.6-3.15-.15-2.61,1.79-4.49,1.41.82.53-1-.15-3.86-1.3-2.42-1.94-5.13-1.69-1.88-.87-.24-3.14,2.17.34.44-1.65,3.09-1.59-.29-.49-3.24.68-.24,1.4-3.24.15-5.7-2.18-4.84-4.83-.82-.49-.73-4.49-1.3-2,2.51.19,2.18L263,31l.34,3-1.5,1.06V31.3l-1.35,2.85-1.6,2.52-1.06.82.53,2.66-.68,2.76.39,3.43L257.55,48,261,54.7l.43,2.56L261,62l-2.32,5.32-.29.19ZM268.76,24l-1.25.1.77.58.48-.68Zm-7.34,1.26H261l.43.19Zm8.46-6.14-.49-.77-.19,0,.68.73ZM226.07,22.6l1.55.87,7.93,2.42,3.67,1,3.58.25,2.61,2.12v3.29l2.32,2.32v0l1.89-5.46,2.27-1.6,1.74-1.93.29,1.74,1.79-2.76,4.3-1.64.34-.68,4.35.54,1.7.87.82-2.13.77.48,3.39-.53-.83-1.35-1.49-.87.29-3.15-3,1.65-2.71-.34-.87-2.08.29-.68-3.68,1.74-2.37.15-4.25,2.61-.48,1-2.61-.63-1.65.72-3.29-2.85-7.3-2.22-.14-.87L232.65,19l-2.66.68-3.77,2.85-.15.1Zm17.12-11-5.66,2.81,1.89,1.84.72-1.84,1.94-2.37,1.11-.44ZM236.85,5,233,7.66l-.2,1.3,3.05-2.22Z" transform="translate(-12.9 -4.51)" style="fill:#f7f8f9;stroke:#c1c0c0;stroke-linejoin:round;stroke-width:0.970631182193756px;fill-rule:evenodd"/><circle cx="256.3" cy="42.81" r="9.94" style="fill:#ec1e24;stroke:#000;stroke-linejoin:round;stroke-width:0.970631182193756px"/><circle cx="278.17" cy="72.84" r="9.94" style="fill:#fff;stroke:#000;stroke-linejoin:round;stroke-width:0.970631182193756px"/><circle cx="253.11" cy="78.4" r="9.94" style="fill:#3853a3;stroke:#000;stroke-linejoin:round;stroke-width:0.970631182193756px"/><circle cx="226.52" cy="81.01" r="9.94" style="fill:#fff;stroke:#000;stroke-linejoin:round;stroke-width:0.970631182193756px"/><circle cx="219.73" cy="39.14" r="9.94" style="fill:#fff;stroke:#000;stroke-linejoin:round;stroke-width:0.970631182193756px"/><line x1="229.67" y1="39.14" x2="246.37" y2="42.81" style="fill:#f7f8f9;stroke:#000;stroke-linejoin:round;stroke-width:0.970631182193756px"/><line x1="263.3" y1="49.87" x2="273.08" y2="64.31" style="fill:#f7f8f9;stroke:#000;stroke-linejoin:round;stroke-width:0.970631182193756px"/><line x1="268.05" y1="74.14" x2="262.96" y2="77.07" style="fill:#f7f8f9;stroke:#000;stroke-linejoin:round;stroke-width:0.970631182193756px"/><line x1="243.43" y1="80.61" x2="236.46" y2="81.01" style="fill:#f7f8f9;stroke:#000;stroke-linejoin:round;stroke-width:0.970631182193756px"/><line x1="221.93" y1="48.83" x2="224.73" y2="71.24" style="fill:#f7f8f9;stroke:#000;stroke-linejoin:round;stroke-width:0.970631182193756px"/><line x1="253.64" y1="52.39" x2="253.11" y2="68.46" style="fill:#f7f8f9;stroke:#000;stroke-linejoin:round;stroke-width:0.970631182193756px"/><path id="IL-4" data-name="IL" d="M417.42,63.89l-.09.24,1.83,1.16.58,1.16,1.94,1.84-.05,1.55-1.06,3-2.42,1.74-2.18.44-.43,2.51.72.34-.72,4.93L413.75,84l.34,1.89-.44.19h0l-.38,2.13,1.54,4.3,5.51,4.64.49,2.23,1.06,1.11,3.48-.19-.63,3.24-.24,3.48,2.08,1.69,3.29,1.45,1.74,1.35,1,2.76-.54,1,3.44,2.81.14,0-.29-.29,1-2.28,3.72,1,.92-1.06-.72-2.13,3-1.79-.82-1.16.72-1.64v-.15l-.19,0,.05-4.3,1.06-.77,1.84-4.31-.39-1.88L444.31,95l.67-2.56L441.6,68.63l-.49-.54-1.25-2.85-1-1.06-.43-2.81v-.09l-6.53.92-3.92.48-10.54,1.21Z" transform="translate(-12.9 -4.51)" style="fill:#f7f8f9;stroke:#c1c0c0;stroke-linejoin:round;stroke-width:0.970631182193756px;fill-rule:evenodd"/><path id="IN-4" data-name="IN" d="M461.71,64.9l-7.4,1.31-1.69.34-6,1-1.26,1-1.89.87-.72-.05-.87-.43-.29-.29L445,92.46,444.31,95l1.2,2.28.39,1.88-1.84,4.31-1.06.77-.05,4.3.19,0,.2,0,.72-1.35h1.79l2.18-.73,2.71,1,.29-1.11,1.54-1.16,2.32.33,1.26-2.46,3.43.29-.05-1.4,3.05-4-.48-1.83,2.12,0L466.84,94l-.63-2.37.09-.1-.09-.82-2.9-17.11L462,66.31l-.14-.78-.15-.63Z" transform="translate(-12.9 -4.51)" style="fill:#f7f8f9;stroke:#c1c0c0;stroke-linejoin:round;stroke-width:0.970631182193756px;fill-rule:evenodd"/><path id="OH-4" data-name="OH" d="M495.51,68.09l-1.21-5.22-.24-1.06-1.36-6L491,57l-3.72,2.86-2.42,3-1.88.29-3.49,2-1.93-1.16-5.85-.68h0l-3.09.78-3.05.72-3.19.68-.48.14.14.78,1.31,7.3,2.9,17.11.09.82.39-.38,2.37-.29,1.26.63,2.46,2.12.68-.29,2.61,1.16,1.26-1,1.45.58,1.16-.29L481.78,92l.91,1.54,2,1.16.1.1h0l2.08-1,.73-1.6-.58-1.64,1.64-2.52,1.21-.19-.15-2.13,2-2.71.33.39,1.79-1.35,1.55-2.32.24-10.59.1,0-.24-1Z" transform="translate(-12.9 -4.51)" style="fill:#f7f8f9;stroke:#c1c0c0;stroke-linejoin:round;stroke-width:0.970631182193756px;fill-rule:evenodd"/><path id="WI-4" data-name="WI" d="M439.52,32.32l-1.21,1.5L437.58,36l.34,1.21ZM411.77,21l.72-1-.53.48Zm1.11-1.6-.24-.29-.54.34.78-.05Zm-10.54,2.71-1.11,1.25.53,5.81-3.1,2.8-.58,2.71,1.7,1.54-.49,6.68,1.79,1.35,1.16.1,3.68,2.22L408.24,49l2.95,1.5.67,3.72v.24h0l1.41,1.69-.39,1.31.48,2.85,1.45,2,2.66,1.41-.05.24h0L428,62.68l3.92-.48,6.53-.92-.2-.73V58.28l-1.3-2.42-.34-3,.63-3.39-.34-2.61L438,43.58l-.44-.53.1-3,.63-2.27-.73-.77-1.4.48-.77,2-1.84,1.06.58-2.56,1.65-2.17.09-1,.05-.05-2.32-2.32V29.22L431,27.1l-3.58-.25-3.67-1-7.93-2.42-1.55-.87-.14.14-2.47-.33-.82.48.34-3.53-4,2-4.83.77-.05-.09Zm9.47-2.57-.09-.33-.34.14Zm-1.74-.33.15-.29-.1-.1-.05.39Zm3.53-.83-.14-.67-.15.82Z" transform="translate(-12.9 -4.51)" style="fill:#f7f8f9;stroke:#c1c0c0;stroke-linejoin:round;stroke-width:0.970631182193756px;fill-rule:evenodd"/><path id="MI-4" data-name="MI" d="M446.58,34l-.24-.39,0,.49Zm.77-.87-.58-.77-.1.33Zm.48-3.48-.48-.44v.1Zm-1.2,37.85,6-1,1.69-.34,7.4-1.31.15.63.48-.14,3.19-.68,3.05-.72,3.09-.78-.05-.14,1.6-3.15-.15-2.61,1.79-4.49,1.4.82.54-1-.15-3.86-1.31-2.42-1.93-5.13-1.69-1.88-.87-.24-3.14,2.17.33.44-1.64,3.09-1.6-.29-.48-3.24L465,41l1.4-3.24.15-5.7-2.18-4.84-4.84-.82-.48-.73-4.5-1.3-2,2.51.2,2.18L451.17,31l.34,3L450,35.07V31.3l-1.35,2.85-1.6,2.52-1.06.82.53,2.66-.68,2.76.39,3.43L445.76,48l3.48,6.67.43,2.56L449.24,62l-2.32,5.32-.29.19ZM457,24l-1.25.1.77.58L457,24Zm-7.35,1.26h-.38l.43.19Zm8.46-6.14-.48-.77-.19,0,.67.73Zm-43.8,3.53,1.55.87,7.93,2.42,3.67,1,3.58.25,2.61,2.12v3.29l2.32,2.32v0l1.89-5.46,2.27-1.6,1.74-1.93.29,1.74,1.79-2.76,4.3-1.64.34-.68,4.35.54,1.69.87.83-2.13.77.48,3.38-.53-.82-1.35-1.5-.87.29-3.15L454.6,18l-2.7-.34L451,15.54l.29-.68-3.68,1.74-2.37.15L441,19.36l-.49,1-2.61-.63-1.64.72L433,17.57l-7.3-2.22-.14-.87L420.86,19l-2.66.68-3.77,2.85-.15.1Zm17.12-11-5.66,2.81,1.88,1.84.73-1.84,1.93-2.37,1.12-.44ZM425.06,5l-3.87,2.66L421,9l3.05-2.22Z" transform="translate(-12.9 -4.51)" style="fill:#f7f8f9;stroke:#c1c0c0;stroke-linejoin:round;stroke-width:0.970631182193756px;fill-rule:evenodd"/><circle cx="444.51" cy="42.81" r="9.94" style="fill:#ec1e24;stroke:#000;stroke-linejoin:round;stroke-width:0.970631182193756px"/><circle cx="466.38" cy="72.84" r="9.94" style="fill:#72be44;stroke:#000;stroke-linejoin:round;stroke-width:0.970631182193756px"/><circle cx="441.32" cy="78.4" r="9.94" style="fill:#3853a3;stroke:#000;stroke-linejoin:round;stroke-width:0.970631182193756px"/><circle cx="414.73" cy="81.01" r="9.94" style="fill:#ec1e24;stroke:#000;stroke-linejoin:round;stroke-width:0.970631182193756px"/><circle cx="407.94" cy="39.14" r="9.94" style="fill:#fff;stroke:#000;stroke-linejoin:round;stroke-width:0.970631182193756px"/><line x1="417.87" y1="39.14" x2="434.57" y2="42.81" style="fill:#f7f8f9;stroke:#000;stroke-linejoin:round;stroke-width:0.970631182193756px"/><line x1="451.5" y1="49.87" x2="461.28" y2="64.31" style="fill:#f7f8f9;stroke:#000;stroke-linejoin:round;stroke-width:0.970631182193756px"/><line x1="456.26" y1="74.14" x2="451.17" y2="77.07" style="fill:#f7f8f9;stroke:#000;stroke-linejoin:round;stroke-width:0.970631182193756px"/><line x1="431.63" y1="80.61" x2="424.67" y2="81.01" style="fill:#f7f8f9;stroke:#000;stroke-linejoin:round;stroke-width:0.970631182193756px"/><line x1="410.14" y1="48.83" x2="412.94" y2="71.24" style="fill:#f7f8f9;stroke:#000;stroke-linejoin:round;stroke-width:0.970631182193756px"/><line x1="441.85" y1="52.39" x2="441.32" y2="68.46" style="fill:#f7f8f9;stroke:#000;stroke-linejoin:round;stroke-width:0.970631182193756px"/><path id="IL-5" data-name="IL" d="M326.75,63.89l-.09.24,1.83,1.16.58,1.16L331,68.29,331,69.84l-1.07,3-2.41,1.74-2.18.44-.43,2.51.72.34-.72,4.93L323.08,84l.34,1.89L323,86h0l-.39,2.13,1.55,4.3,5.51,4.64.49,2.23,1.06,1.11,3.48-.19-.63,3.24-.24,3.48,2.08,1.69,3.29,1.45,1.74,1.35,1,2.76-.54,1,3.44,2.81.14,0-.29-.29,1-2.28,3.72,1,.92-1.06-.73-2.13,3.05-1.79-.82-1.16.72-1.64v-.15l-.19,0,.05-4.3,1.06-.77,1.84-4.31-.39-1.88L353.63,95l.68-2.56-3.38-23.83-.49-.54-1.25-2.85-1-1.06-.43-2.81v-.09l-6.53.92-3.92.48-10.54,1.21Z" transform="translate(-12.9 -4.51)" style="fill:#f7f8f9;stroke:#c1c0c0;stroke-linejoin:round;stroke-width:0.970631182193756px;fill-rule:evenodd"/><path id="IN-5" data-name="IN" d="M371,64.9l-7.4,1.31-1.69.34-6,1-1.25,1-1.89.87-.72-.05-.87-.43-.29-.29,3.38,23.83L353.63,95l1.21,2.28.39,1.88-1.84,4.31-1.06.77-.05,4.3.19,0,.2,0,.72-1.35h1.79l2.18-.73,2.7,1,.29-1.11,1.55-1.16,2.32.33,1.26-2.46,3.43.29-.05-1.4,3.05-4-.48-1.83,2.12,0L376.16,94l-.62-2.37.09-.1-.09-.82-2.91-17.11-1.3-7.3-.15-.78L371,64.9Z" transform="translate(-12.9 -4.51)" style="fill:#f7f8f9;stroke:#c1c0c0;stroke-linejoin:round;stroke-width:0.970631182193756px;fill-rule:evenodd"/><path id="OH-5" data-name="OH" d="M404.83,68.09l-1.2-5.22-.25-1.06-1.35-6L400.29,57l-3.72,2.86-2.42,3-1.89.29-3.48,2-1.93-1.16L381,63.21h0l-3.1.78-3,.72-3.19.68-.49.14.15.78,1.3,7.3,2.91,17.11.09.82.39-.38,2.37-.29,1.26.63,2.46,2.12.68-.29,2.61,1.16,1.26-1,1.45.58,1.16-.29L391.1,92l.92,1.54,2,1.16.1.1h0l2.08-1,.72-1.6-.58-1.64L398,88.06l1.21-.19-.15-2.13,2-2.71.34.39,1.79-1.35,1.55-2.32L405,69.16l.1,0-.24-1Z" transform="translate(-12.9 -4.51)" style="fill:#f7f8f9;stroke:#c1c0c0;stroke-linejoin:round;stroke-width:0.970631182193756px;fill-rule:evenodd"/><path id="WI-5" data-name="WI" d="M348.85,32.32l-1.21,1.5L346.91,36l.34,1.21ZM321.1,21l.72-1-.53.48Zm1.11-1.6-.24-.29-.54.34.78-.05Zm-10.54,2.71-1.11,1.25.53,5.81-3.1,2.8-.58,2.71,1.69,1.54-.48,6.68,1.79,1.35,1.16.1,3.68,2.22L317.57,49l2.95,1.5.67,3.72v.24h0l1.4,1.69-.38,1.31.48,2.85,1.45,2,2.66,1.41-.05.24h0l10.54-1.21,3.92-.48,6.53-.92-.2-.73V58.28l-1.3-2.42-.34-3,.63-3.39-.34-2.61,1.16-3.24-.44-.53.1-3,.63-2.27-.73-.77-1.4.48-.77,2-1.84,1.06.58-2.56,1.64-2.17.1-1,0-.05L343,32.51V29.22l-2.61-2.12-3.58-.25-3.67-1-7.93-2.42-1.55-.87-.15.14L321,22.41l-.82.48.34-3.53-4,2-4.83.77-.05-.09Zm9.47-2.57-.09-.33-.34.14Zm-1.74-.33.15-.29-.1-.1-.05.39Zm3.53-.83-.14-.67-.15.82Z" transform="translate(-12.9 -4.51)" style="fill:#f7f8f9;stroke:#c1c0c0;stroke-linejoin:round;stroke-width:0.970631182193756px;fill-rule:evenodd"/><path id="MI-5" data-name="MI" d="M355.91,34l-.25-.39,0,.49Zm.77-.87-.58-.77-.1.33Zm.48-3.48-.48-.44v.1ZM356,67.51l6-1,1.69-.34L371,64.9l.14.63.49-.14,3.19-.68,3-.72,3.1-.78-.05-.14,1.6-3.15-.15-2.61,1.79-4.49,1.4.82.53-1L386,48.76l-1.31-2.42-1.93-5.13-1.69-1.88-.87-.24L377,41.26l.34.44-1.64,3.09-1.6-.29-.48-3.24.68-.24,1.4-3.24.14-5.7-2.17-4.84-4.84-.82-.48-.73-4.5-1.3-2,2.51.2,2.18L360.5,31l.34,3-1.5,1.06V31.3L358,34.15l-1.6,2.52-1.06.82.53,2.66-.68,2.76.39,3.43L355.08,48l3.49,6.67.43,2.56L358.57,62l-2.33,5.32-.29.19ZM366.3,24l-1.26.1.78.58.48-.68ZM359,25.21h-.38l.43.19Zm8.46-6.14-.48-.77-.19,0,.67.73Zm-43.8,3.53,1.55.87,7.93,2.42,3.67,1,3.58.25L343,29.22v3.29l2.32,2.32v0l1.89-5.46,2.27-1.6,1.74-1.93.29,1.74,1.79-2.76,4.3-1.64.34-.68,4.35.54,1.69.87.82-2.13.78.48,3.38-.53-.82-1.35-1.5-.87.29-3.15L363.93,18l-2.71-.34-.87-2.08.29-.68L357,16.6l-2.37.15-4.25,2.61-.49,1-2.61-.63-1.64.72-3.29-2.85L335,15.35l-.15-.87L330.18,19l-2.65.68-3.78,2.85-.14.1Zm17.11-11-5.65,2.81L337,16.27l.73-1.84,1.93-2.37,1.11-.44ZM334.39,5l-3.87,2.66L330.33,9l3.05-2.22Z" transform="translate(-12.9 -4.51)" style="fill:#f7f8f9;stroke:#c1c0c0;stroke-linejoin:round;stroke-width:0.970631182193756px;fill-rule:evenodd"/><circle cx="353.84" cy="42.81" r="9.94" style="fill:#ec1e24;stroke:#000;stroke-linejoin:round;stroke-width:0.970631182193756px"/><circle cx="375.7" cy="72.84" r="9.94" style="fill:#72be44;stroke:#000;stroke-linejoin:round;stroke-width:0.970631182193756px"/><circle cx="350.65" cy="78.4" r="9.94" style="fill:#3853a3;stroke:#000;stroke-linejoin:round;stroke-width:0.970631182193756px"/><circle cx="324.06" cy="81.01" r="9.94" style="fill:#fff;stroke:#000;stroke-linejoin:round;stroke-width:0.970631182193756px"/><circle cx="317.27" cy="39.14" r="9.94" style="fill:#fff;stroke:#000;stroke-linejoin:round;stroke-width:0.970631182193756px"/><line x1="327.2" y1="39.14" x2="343.9" y2="42.81" style="fill:#f7f8f9;stroke:#000;stroke-linejoin:round;stroke-width:0.970631182193756px"/><line x1="360.83" y1="49.87" x2="370.61" y2="64.31" style="fill:#f7f8f9;stroke:#000;stroke-linejoin:round;stroke-width:0.970631182193756px"/><line x1="365.59" y1="74.14" x2="360.49" y2="77.07" style="fill:#f7f8f9;stroke:#000;stroke-linejoin:round;stroke-width:0.970631182193756px"/><line x1="340.96" y1="80.61" x2="333.99" y2="81.01" style="fill:#f7f8f9;stroke:#000;stroke-linejoin:round;stroke-width:0.970631182193756px"/><line x1="351.18" y1="52.39" x2="350.65" y2="68.46" style="fill:#f7f8f9;stroke:#000;stroke-linejoin:round;stroke-width:0.970631182193756px"/><line x1="319.46" y1="49.16" x2="322.27" y2="71.57" style="fill:#f7f8f9;stroke:#000;stroke-linejoin:round;stroke-width:0.970631182193756px"/><path id="IL-6" data-name="IL" d="M511.41,63.89l-.09.24,1.83,1.16.58,1.16,1.94,1.84,0,1.55-1.06,3-2.42,1.74-2.18.44-.43,2.51.72.34-.72,4.93L507.74,84l.34,1.89-.44.19h0l-.38,2.13,1.54,4.3,5.51,4.64.49,2.23,1.06,1.11,3.48-.19-.63,3.24-.24,3.48,2.08,1.69,3.29,1.45,1.74,1.35,1,2.76-.54,1,3.44,2.81.14,0-.29-.29,1-2.28,3.72,1,.92-1.06-.72-2.13,3-1.79-.82-1.16.72-1.64v-.15l-.19,0,0-4.3,1.06-.77,1.84-4.31-.39-1.88L538.3,95l.67-2.56-3.38-23.83-.49-.54-1.25-2.85-1-1.06-.43-2.81v-.09l-6.53.92-3.92.48-10.54,1.21Z" transform="translate(-12.9 -4.51)" style="fill:#f7f8f9;stroke:#c1c0c0;stroke-linejoin:round;stroke-width:0.970631182193756px;fill-rule:evenodd"/><path id="IN-6" data-name="IN" d="M555.7,64.9l-7.4,1.31-1.69.34-6,1-1.26,1-1.89.87-.72-.05-.87-.43-.29-.29L539,92.46,538.3,95l1.2,2.28.39,1.88-1.84,4.31-1.06.77,0,4.3.19,0,.2,0,.72-1.35h1.79l2.18-.73,2.71,1,.29-1.11,1.54-1.16,2.32.33,1.26-2.46,3.43.29,0-1.4,3-4-.48-1.83,2.12,0L560.83,94l-.63-2.37.09-.1-.09-.82-2.9-17.11L556,66.31l-.14-.78-.15-.63Z" transform="translate(-12.9 -4.51)" style="fill:#f7f8f9;stroke:#c1c0c0;stroke-linejoin:round;stroke-width:0.970631182193756px;fill-rule:evenodd"/><path id="OH-6" data-name="OH" d="M589.5,68.09l-1.21-5.22-.24-1.06-1.36-6L585,57l-3.72,2.86-2.42,3-1.88.29-3.49,2-1.93-1.16-5.85-.68h0l-3.09.78-3.05.72-3.19.68-.48.14.14.78,1.31,7.3,2.9,17.11.09.82.39-.38,2.37-.29,1.26.63,2.46,2.12.68-.29,2.61,1.16,1.26-1,1.45.58,1.16-.29L575.77,92l.91,1.54,2,1.16.1.1h0l2.08-1,.73-1.6L581,90.58l1.64-2.52,1.21-.19-.15-2.13,2-2.71.33.39,1.79-1.35,1.55-2.32.24-10.59.1,0-.24-1Z" transform="translate(-12.9 -4.51)" style="fill:#f7f8f9;stroke:#c1c0c0;stroke-linejoin:round;stroke-width:0.970631182193756px;fill-rule:evenodd"/><path id="WI-6" data-name="WI" d="M533.51,32.32l-1.21,1.5L531.57,36l.34,1.21ZM505.76,21l.72-1-.53.48Zm1.11-1.6-.24-.29-.53.34.77-.05Zm-10.54,2.71-1.11,1.25.53,5.81-3.1,2.8-.58,2.71,1.7,1.54-.49,6.68,1.79,1.35,1.16.1,3.68,2.22L502.23,49l2.95,1.5.67,3.72v.24h0l1.41,1.69-.39,1.31.48,2.85,1.45,2,2.66,1.41,0,.24h0L522,62.68l3.92-.48,6.53-.92-.2-.73V58.28l-1.3-2.42-.34-3,.63-3.39-.34-2.61L532,43.58l-.44-.53.1-3,.63-2.27-.73-.77-1.4.48-.77,2-1.84,1.06.58-2.56,1.65-2.17.09-1,0-.05-2.32-2.32V29.22L525,27.1l-3.58-.25-3.67-1-7.93-2.42-1.55-.87-.14.14-2.47-.33-.82.48.34-3.53-4,2-4.83.77-.05-.09Zm9.48-2.57-.1-.33-.34.14Zm-1.75-.33.15-.29-.1-.1-.05.39Zm3.53-.83-.14-.67-.15.82Z" transform="translate(-12.9 -4.51)" style="fill:#f7f8f9;stroke:#c1c0c0;stroke-linejoin:round;stroke-width:0.970631182193756px;fill-rule:evenodd"/><path id="MI-6" data-name="MI" d="M540.57,34l-.24-.39-.05.49Zm.77-.87-.58-.77-.1.33Zm.48-3.48-.48-.44v.1Zm-1.2,37.85,6-1,1.69-.34,7.4-1.31.15.63.48-.14,3.19-.68,3.05-.72,3.09-.78,0-.14,1.6-3.15-.15-2.61,1.79-4.49,1.4.82.54-1-.15-3.86-1.3-2.42-1.94-5.13-1.69-1.88-.87-.24-3.14,2.17.33.44-1.64,3.09-1.59-.29-.49-3.24L559,41l1.4-3.24.15-5.7-2.18-4.84-4.83-.82-.49-.73-4.49-1.3-2,2.51.2,2.18L545.16,31l.34,3L544,35.07V31.3l-1.35,2.85-1.6,2.52-1.06.82.53,2.66-.68,2.76.39,3.43L539.75,48l3.48,6.67.43,2.56L543.23,62l-2.32,5.32-.29.19ZM551,24l-1.25.1.77.58L551,24Zm-7.35,1.26h-.38l.43.19Zm8.46-6.14-.48-.77-.19,0,.67.73Zm-43.8,3.53,1.55.87,7.93,2.42,3.67,1,3.58.25,2.61,2.12v3.29l2.32,2.32v0l1.89-5.46,2.27-1.6,1.74-1.93.29,1.74,1.79-2.76,4.3-1.64.34-.68,4.35.54,1.69.87.83-2.13.77.48,3.38-.53-.82-1.35-1.5-.87.29-3.15L548.59,18l-2.7-.34L545,15.54l.29-.68-3.68,1.74-2.37.15L535,19.36l-.49,1-2.61-.63-1.64.72L527,17.57l-7.3-2.22-.14-.87L514.85,19l-2.66.68-3.77,2.85-.15.1Zm17.12-11-5.66,2.81,1.89,1.84.72-1.84,1.93-2.37,1.12-.44ZM519.05,5l-3.87,2.66L515,9l3-2.22Z" transform="translate(-12.9 -4.51)" style="fill:#f7f8f9;stroke:#c1c0c0;stroke-linejoin:round;stroke-width:0.970631182193756px;fill-rule:evenodd"/><circle cx="538.5" cy="42.81" r="9.94" style="fill:#ec1e24;stroke:#000;stroke-linejoin:round;stroke-width:0.970631182193756px"/><circle cx="560.37" cy="72.84" r="9.94" style="fill:#72be44;stroke:#000;stroke-linejoin:round;stroke-width:0.970631182193756px"/><circle cx="535.31" cy="78.4" r="9.94" style="fill:#3853a3;stroke:#000;stroke-linejoin:round;stroke-width:0.970631182193756px"/><circle cx="508.72" cy="81.01" r="9.94" style="fill:#ec1e24;stroke:#000;stroke-linejoin:round;stroke-width:0.970631182193756px"/><circle cx="501.93" cy="39.14" r="9.94" style="fill:#3853a3;stroke:#000;stroke-linejoin:round;stroke-width:0.970631182193756px"/><line x1="511.86" y1="39.14" x2="528.57" y2="42.81" style="fill:#f7f8f9;stroke:#000;stroke-linejoin:round;stroke-width:0.970631182193756px"/><line x1="545.49" y1="49.87" x2="555.27" y2="64.31" style="fill:#f7f8f9;stroke:#000;stroke-linejoin:round;stroke-width:0.970631182193756px"/><line x1="550.25" y1="74.14" x2="545.16" y2="77.07" style="fill:#f7f8f9;stroke:#000;stroke-linejoin:round;stroke-width:0.970631182193756px"/><line x1="525.62" y1="80.61" x2="518.66" y2="81.01" style="fill:#f7f8f9;stroke:#000;stroke-linejoin:round;stroke-width:0.970631182193756px"/><line x1="504.13" y1="48.83" x2="506.93" y2="71.24" style="fill:#f7f8f9;stroke:#000;stroke-linejoin:round;stroke-width:0.970631182193756px"/><line x1="535.84" y1="52.39" x2="535.31" y2="68.46" style="fill:#f7f8f9;stroke:#000;stroke-linejoin:round;stroke-width:0.970631182193756px"/></svg>